<svg width="32" height="22" viewBox="0 0 32 22" fill="none" xmlns="http://www.w3.org/2000/svg">
<path d="M9.33333 0.333496C6.4 0.333496 4 2.7335 4 5.66683C4 8.60016 6.4 11.0002 9.33333 11.0002C12.2667 11.0002 14.6667 8.60016 14.6667 5.66683C14.6667 2.7335 12.2667 0.333496 9.33333 0.333496ZM9.33333 8.3335C7.86667 8.3335 6.66667 7.1335 6.66667 5.66683C6.66667 4.20016 7.86667 3.00016 9.33333 3.00016C10.8 3.00016 12 4.20016 12 5.66683C12 7.1335 10.8 8.3335 9.33333 8.3335ZM9.33333 13.6668C4.13333 13.6668 0 16.0668 0 19.0002V21.6668H14.6667V19.0002H2.66667C2.66667 18.2002 5.06667 16.3335 9.33333 16.3335C11.7333 16.3335 13.6 17.0002 14.6667 17.6668V14.7335C13.2 14.0668 11.3333 13.6668 9.33333 13.6668ZM29.3333 0.333496H20C18.5333 0.333496 17.3333 1.5335 17.3333 3.00016V19.0002C17.3333 20.4668 18.5333 21.6668 20 21.6668H29.3333C30.8 21.6668 32 20.4668 32 19.0002V3.00016C32 1.5335 30.8 0.333496 29.3333 0.333496ZM21.3333 19.0002H20V3.00016H21.3333V19.0002ZM29.3333 19.0002H24V3.00016H29.3333V19.0002Z" fill="black"/>
</svg>
