<svg width="32" height="32" viewBox="0 0 32 32" fill="none" xmlns="http://www.w3.org/2000/svg">
<g clip-path="url(#clip0_180_1021)">
<path d="M2.66667 14.6667H17.3333C18.0406 14.6667 18.7189 14.3857 19.219 13.8856C19.719 13.3855 20 12.7072 20 12V2.66667C20 1.95942 19.719 1.28115 19.219 0.781049C18.7189 0.280952 18.0406 0 17.3333 0L2.66667 0C1.95942 0 1.28115 0.280952 0.781049 0.781049C0.280952 1.28115 0 1.95942 0 2.66667L0 12C0 12.7072 0.280952 13.3855 0.781049 13.8856C1.28115 14.3857 1.95942 14.6667 2.66667 14.6667ZM2.66667 2.66667H17.3333V12H2.66667V2.66667Z" fill="black"/>
<path d="M29.3334 0H25.3334C24.6262 0 23.9479 0.280952 23.4478 0.781049C22.9477 1.28115 22.6667 1.95942 22.6667 2.66667V12C22.6667 12.7072 22.9477 13.3855 23.4478 13.8856C23.9479 14.3857 24.6262 14.6667 25.3334 14.6667H29.3334C30.0407 14.6667 30.7189 14.3857 31.219 13.8856C31.7191 13.3855 32.0001 12.7072 32.0001 12V2.66667C32.0001 1.95942 31.7191 1.28115 31.219 0.781049C30.7189 0.280952 30.0407 0 29.3334 0V0ZM29.3334 12H25.3334V2.66667H29.3334V12Z" fill="black"/>
<path d="M6.66667 17.334H2.66667C1.95942 17.334 1.28115 17.6149 0.781049 18.115C0.280952 18.6151 0 19.2934 0 20.0006L0 29.334C0 30.0412 0.280952 30.7195 0.781049 31.2196C1.28115 31.7197 1.95942 32.0006 2.66667 32.0006H6.66667C7.37391 32.0006 8.05219 31.7197 8.55229 31.2196C9.05238 30.7195 9.33333 30.0412 9.33333 29.334V20.0006C9.33333 19.2934 9.05238 18.6151 8.55229 18.115C8.05219 17.6149 7.37391 17.334 6.66667 17.334ZM6.66667 29.334H2.66667V20.0006H6.66667V29.334Z" fill="black"/>
<path d="M29.3333 17.334H14.6667C13.9594 17.334 13.2811 17.6149 12.781 18.115C12.281 18.6151 12 19.2934 12 20.0006V29.334C12 30.0412 12.281 30.7195 12.781 31.2196C13.2811 31.7197 13.9594 32.0006 14.6667 32.0006H29.3333C30.0406 32.0006 30.7189 31.7197 31.219 31.2196C31.719 30.7195 32 30.0412 32 29.334V20.0006C32 19.2934 31.719 18.6151 31.219 18.115C30.7189 17.6149 30.0406 17.334 29.3333 17.334ZM29.3333 29.334H14.6667V20.0006H29.3333V29.334Z" fill="black"/>
</g>
<defs>
<clipPath id="clip0_180_1021">
<rect width="32" height="32" fill="white"/>
</clipPath>
</defs>
</svg>
