<svg width="22" height="22" viewBox="0 0 22 22" fill="none" xmlns="http://www.w3.org/2000/svg">
<path fill-rule="evenodd" clip-rule="evenodd" d="M20.7504 5.22995C20.7504 7.4276 18.9681 9.2099 16.7705 9.2099C14.5728 9.2099 12.7915 7.4276 12.7915 5.22995C12.7915 3.0323 14.5728 1.25 16.7705 1.25C18.9681 1.25 20.7504 3.0323 20.7504 5.22995Z" stroke="black" stroke-width="1.5" stroke-linecap="round" stroke-linejoin="round"/>
<path fill-rule="evenodd" clip-rule="evenodd" d="M9.20893 5.22995C9.20893 7.4276 7.4276 9.2099 5.22898 9.2099C3.0323 9.2099 1.25 7.4276 1.25 5.22995C1.25 3.0323 3.0323 1.25 5.22898 1.25C7.4276 1.25 9.20893 3.0323 9.20893 5.22995Z" stroke="black" stroke-width="1.5" stroke-linecap="round" stroke-linejoin="round"/>
<path fill-rule="evenodd" clip-rule="evenodd" d="M20.7504 16.7007C20.7504 18.8983 18.9681 20.6796 16.7705 20.6796C14.5728 20.6796 12.7915 18.8983 12.7915 16.7007C12.7915 14.503 14.5728 12.7207 16.7705 12.7207C18.9681 12.7207 20.7504 14.503 20.7504 16.7007Z" stroke="black" stroke-width="1.5" stroke-linecap="round" stroke-linejoin="round"/>
<path fill-rule="evenodd" clip-rule="evenodd" d="M9.20893 16.7007C9.20893 18.8983 7.4276 20.6796 5.22898 20.6796C3.0323 20.6796 1.25 18.8983 1.25 16.7007C1.25 14.503 3.0323 12.7207 5.22898 12.7207C7.4276 12.7207 9.20893 14.503 9.20893 16.7007Z" stroke="black" stroke-width="1.5" stroke-linecap="round" stroke-linejoin="round"/>
</svg>
