<svg width="26" height="26" viewBox="0 0 26 26" fill="none" xmlns="http://www.w3.org/2000/svg">
<g clip-path="url(#clip0_152_871)">
<path d="M24.9167 23.8333H3.25C2.96268 23.8333 2.68713 23.7192 2.48397 23.516C2.2808 23.3129 2.16667 23.0373 2.16667 22.75V1.08333C2.16667 0.796016 2.05253 0.520465 1.84937 0.317301C1.6462 0.114137 1.37065 0 1.08333 0C0.796016 0 0.520465 0.114137 0.317301 0.317301C0.114137 0.520465 0 0.796016 0 1.08333L0 22.75C0 23.612 0.34241 24.4386 0.951903 25.0481C1.5614 25.6576 2.38805 26 3.25 26H24.9167C25.204 26 25.4795 25.8859 25.6827 25.6827C25.8859 25.4795 26 25.204 26 24.9167C26 24.6293 25.8859 24.3538 25.6827 24.1506C25.4795 23.9475 25.204 23.8333 24.9167 23.8333Z" fill="black"/>
<path d="M16.2501 21.6674C16.5374 21.6674 16.813 21.5532 17.0161 21.3501C17.2193 21.1469 17.3334 20.8713 17.3334 20.584V13.0007C17.3334 12.7134 17.2193 12.4378 17.0161 12.2347C16.813 12.0315 16.5374 11.9174 16.2501 11.9174C15.9628 11.9174 15.6872 12.0315 15.4841 12.2347C15.2809 12.4378 15.1667 12.7134 15.1667 13.0007V20.584C15.1667 20.8713 15.2809 21.1469 15.4841 21.3501C15.6872 21.5532 15.9628 21.6674 16.2501 21.6674Z" fill="black"/>
<path d="M7.58333 21.6674C7.87065 21.6674 8.1462 21.5532 8.34936 21.3501C8.55253 21.1469 8.66666 20.8713 8.66666 20.584V13.0007C8.66666 12.7134 8.55253 12.4378 8.34936 12.2347C8.1462 12.0315 7.87065 11.9174 7.58333 11.9174C7.29601 11.9174 7.02046 12.0315 6.8173 12.2347C6.61414 12.4378 6.5 12.7134 6.5 13.0007V20.584C6.5 20.8713 6.61414 21.1469 6.8173 21.3501C7.02046 21.5532 7.29601 21.6674 7.58333 21.6674Z" fill="black"/>
<path d="M20.5833 21.6667C20.8707 21.6667 21.1462 21.5525 21.3494 21.3494C21.5525 21.1462 21.6667 20.8707 21.6667 20.5833V7.58333C21.6667 7.29602 21.5525 7.02047 21.3494 6.8173C21.1462 6.61414 20.8707 6.5 20.5833 6.5C20.296 6.5 20.0205 6.61414 19.8173 6.8173C19.6141 7.02047 19.5 7.29602 19.5 7.58333V20.5833C19.5 20.8707 19.6141 21.1462 19.8173 21.3494C20.0205 21.5525 20.296 21.6667 20.5833 21.6667Z" fill="black"/>
<path d="M11.9166 21.6667C12.2039 21.6667 12.4795 21.5525 12.6826 21.3494C12.8858 21.1462 12.9999 20.8707 12.9999 20.5833V7.58333C12.9999 7.29602 12.8858 7.02047 12.6826 6.8173C12.4795 6.61414 12.2039 6.5 11.9166 6.5C11.6293 6.5 11.3537 6.61414 11.1506 6.8173C10.9474 7.02047 10.8333 7.29602 10.8333 7.58333V20.5833C10.8333 20.8707 10.9474 21.1462 11.1506 21.3494C11.3537 21.5525 11.6293 21.6667 11.9166 21.6667Z" fill="black"/>
</g>
<defs>
<clipPath id="clip0_152_871">
<rect width="26" height="26" fill="white"/>
</clipPath>
</defs>
</svg>
