<svg width="32" height="32" viewBox="0 0 32 32" fill="none" xmlns="http://www.w3.org/2000/svg">
<path d="M7.008 16C7.008 15.7348 7.11336 15.4804 7.30089 15.2929C7.48843 15.1054 7.74278 15 8.008 15H10.008V13C10.008 12.7348 10.1134 12.4804 10.3009 12.2929C10.4884 12.1054 10.7428 12 11.008 12C11.2732 12 11.5276 12.1054 11.7151 12.2929C11.9026 12.4804 12.008 12.7348 12.008 13V15H14.008C14.2732 15 14.5276 15.1054 14.7151 15.2929C14.9026 15.4804 15.008 15.7348 15.008 16C15.008 16.2652 14.9026 16.5196 14.7151 16.7071C14.5276 16.8946 14.2732 17 14.008 17H12.008V19C12.008 19.2652 11.9026 19.5196 11.7151 19.7071C11.5276 19.8946 11.2732 20 11.008 20C10.7428 20 10.4884 19.8946 10.3009 19.7071C10.1134 19.5196 10.008 19.2652 10.008 19V17H8.008C7.74278 17 7.48843 16.8946 7.30089 16.7071C7.11336 16.5196 7.008 16.2652 7.008 16ZM21.998 19C21.998 19.5304 21.7873 20.0391 21.4122 20.4142C21.0371 20.7893 20.5284 21 19.998 21C19.4676 21 18.9589 20.7893 18.5838 20.4142C18.2087 20.0391 17.998 19.5304 17.998 19C17.998 18.4696 18.2087 17.9609 18.5838 17.5858C18.9589 17.2107 19.4676 17 19.998 17C20.5284 17 21.0371 17.2107 21.4122 17.5858C21.7873 17.9609 21.998 18.4696 21.998 19ZM21.998 15C22.5284 15 23.0371 14.7893 23.4122 14.4142C23.7873 14.0391 23.998 13.5304 23.998 13C23.998 12.4696 23.7873 11.9609 23.4122 11.5858C23.0371 11.2107 22.5284 11 21.998 11C21.4676 11 20.9589 11.2107 20.5838 11.5858C20.2087 11.9609 19.998 12.4696 19.998 13C19.998 13.5304 20.2087 14.0391 20.5838 14.4142C20.9589 14.7893 21.4676 15 21.998 15ZM2 16C2 13.6131 2.94821 11.3239 4.63604 9.63604C6.32387 7.94821 8.61305 7 11 7H21.016C23.4029 7 25.6921 7.94821 27.38 9.63604C29.0678 11.3239 30.016 13.6131 30.016 16C30.016 18.3869 29.0678 20.6761 27.38 22.364C25.6921 24.0518 23.4029 25 21.016 25H11C8.61305 25 6.32387 24.0518 4.63604 22.364C2.94821 20.6761 2 18.3869 2 16ZM11 9C9.14348 9 7.36301 9.7375 6.05025 11.0503C4.7375 12.363 4 14.1435 4 16C4 17.8565 4.7375 19.637 6.05025 20.9497C7.36301 22.2625 9.14348 23 11 23H21.016C22.8725 23 24.653 22.2625 25.9657 20.9497C27.2785 19.637 28.016 17.8565 28.016 16C28.016 14.1435 27.2785 12.363 25.9657 11.0503C24.653 9.7375 22.8725 9 21.016 9H11Z" fill="black"/>
</svg>
