<svg width="26" height="26" viewBox="0 0 26 26" fill="none" xmlns="http://www.w3.org/2000/svg">
<path d="M9.75011 10.8333C9.76134 9.97487 10.1074 9.15472 10.7144 8.54765C11.3215 7.94057 12.1417 7.59456 13.0001 7.58333C13.8586 7.59456 14.6787 7.94057 15.2858 8.54765C15.8929 9.15472 16.2389 9.97487 16.2501 10.8333C16.2389 11.6918 15.8929 12.5119 15.2858 13.119C14.6787 13.7261 13.8586 14.0721 13.0001 14.0833C12.1417 14.0721 11.3215 13.7261 10.7144 13.119C10.1074 12.5119 9.76134 11.6918 9.75011 10.8333ZM13.0001 20.5833L17.3334 21.6667V18.33C16.0266 19.117 14.5255 19.5223 13.0001 19.5C11.4748 19.5223 9.97363 19.117 8.66678 18.33V21.6667M13.0001 4.33333C12.1464 4.31776 11.2985 4.47694 10.5086 4.80111C9.71872 5.12527 9.00344 5.60756 8.40678 6.21833C7.7894 6.81565 7.30153 7.53361 6.97352 8.32755C6.64551 9.1215 6.48436 9.97444 6.50011 10.8333C6.48883 11.6868 6.65214 12.5335 6.98002 13.3216C7.3079 14.1096 7.79343 14.8223 8.40678 15.4158C9.00066 16.0325 9.71468 16.5208 10.5047 16.8506C11.2948 17.1804 12.1441 17.3447 13.0001 17.3333C13.8562 17.3447 14.7055 17.1804 15.4955 16.8506C16.2855 16.5208 16.9996 16.0325 17.5934 15.4158C18.2068 14.8223 18.6923 14.1096 19.0202 13.3216C19.3481 12.5335 19.5114 11.6868 19.5001 10.8333C19.5159 9.97444 19.3547 9.1215 19.0267 8.32755C18.6987 7.53361 18.2108 6.81565 17.5934 6.21833C16.9968 5.60756 16.2815 5.12527 15.4916 4.80111C14.7017 4.47694 13.8538 4.31776 13.0001 4.33333ZM21.6668 10.8333C21.6437 11.8732 21.4346 12.9005 21.0493 13.8667C20.7022 14.8497 20.177 15.7604 19.5001 16.5533V24.9167L13.0001 22.75L6.50011 24.9167V16.5533C5.09795 14.9787 4.32641 12.9418 4.33345 10.8333C4.31436 9.69647 4.52849 8.56775 4.96263 7.51687C5.39677 6.46599 6.0417 5.51524 6.85761 4.72333C7.65246 3.90011 8.60759 3.24852 9.66406 2.80879C10.7205 2.36906 11.8559 2.15052 13.0001 2.16667C14.1443 2.15052 15.2797 2.36906 16.3362 2.80879C17.3926 3.24852 18.3478 3.90011 19.1426 4.72333C19.9585 5.51524 20.6035 6.46599 21.0376 7.51687C21.4717 8.56775 21.6859 9.69647 21.6668 10.8333Z" fill="black"/>
</svg>
