<svg width="24" height="24" viewBox="0 0 24 24" fill="none" xmlns="http://www.w3.org/2000/svg">
<path d="M8.92024 21.5024V18.1801C8.92022 17.335 9.60913 16.6484 10.4627 16.6427H13.5893C14.4469 16.6427 15.1421 17.331 15.1421 18.1801V21.5127C15.1419 22.2302 15.7204 22.8165 16.4449 22.8334H18.5293C20.6071 22.8334 22.2916 21.1658 22.2916 19.1087V9.65767C22.2805 8.84842 21.8967 8.08848 21.2494 7.59414L14.1208 1.9091C12.8719 0.919217 11.0966 0.919217 9.84779 1.9091L2.75045 7.60446C2.1007 8.09679 1.71625 8.85799 1.70825 9.66799V19.1087C1.70825 21.1658 3.3927 22.8334 5.47057 22.8334H7.55496C8.29747 22.8334 8.89939 22.2375 8.89939 21.5024" stroke="black" stroke-width="1.5" stroke-linecap="round" stroke-linejoin="round"/>
</svg>
