<svg width="32" height="22" viewBox="0 0 32 22" fill="none" xmlns="http://www.w3.org/2000/svg">
<path d="M25.3333 21.6673H6.66667C4.89921 21.6652 3.20474 20.9621 1.95496 19.7124C0.705176 18.4626 0.00211714 16.7681 0 15.0007L0 7.00065C0.00211714 5.23319 0.705176 3.53873 1.95496 2.28894C3.20474 1.03916 4.89921 0.336102 6.66667 0.333984H25.3333C27.1008 0.336102 28.7953 1.03916 30.045 2.28894C31.2948 3.53873 31.9979 5.23319 32 7.00065V15.0007C31.9979 16.7681 31.2948 18.4626 30.045 19.7124C28.7953 20.9621 27.1008 21.6652 25.3333 21.6673ZM6.66667 3.00065C5.6058 3.00065 4.58839 3.42208 3.83824 4.17222C3.08809 4.92237 2.66667 5.93979 2.66667 7.00065V15.0007C2.66667 16.0615 3.08809 17.0789 3.83824 17.8291C4.58839 18.5792 5.6058 19.0007 6.66667 19.0007H25.3333C26.3942 19.0007 27.4116 18.5792 28.1618 17.8291C28.9119 17.0789 29.3333 16.0615 29.3333 15.0007V7.00065C29.3333 5.93979 28.9119 4.92237 28.1618 4.17222C27.4116 3.42208 26.3942 3.00065 25.3333 3.00065H6.66667ZM16 16.334C14.9452 16.334 13.914 16.0212 13.037 15.4352C12.1599 14.8491 11.4763 14.0162 11.0726 13.0416C10.669 12.0671 10.5634 10.9947 10.7691 9.96017C10.9749 8.9256 11.4829 7.9753 12.2288 7.22941C12.9746 6.48353 13.925 5.97558 14.9595 5.7698C15.9941 5.56401 17.0664 5.66963 18.041 6.07329C19.0155 6.47696 19.8485 7.16055 20.4345 8.03761C21.0205 8.91467 21.3333 9.94582 21.3333 11.0007C21.3333 12.4151 20.7714 13.7717 19.7712 14.7719C18.771 15.7721 17.4145 16.334 16 16.334ZM16 8.33398C15.4726 8.33398 14.957 8.49038 14.5185 8.7834C14.0799 9.07642 13.7382 9.49289 13.5363 9.98016C13.3345 10.4674 13.2817 11.0036 13.3846 11.5209C13.4875 12.0382 13.7414 12.5133 14.1144 12.8863C14.4873 13.2592 14.9625 13.5132 15.4798 13.6161C15.997 13.719 16.5332 13.6662 17.0205 13.4643C17.5078 13.2625 17.9242 12.9207 18.2173 12.4822C18.5103 12.0436 18.6667 11.5281 18.6667 11.0007C18.6667 10.2934 18.3857 9.61513 17.8856 9.11503C17.3855 8.61494 16.7072 8.33398 16 8.33398ZM6.66667 5.66732C6.40296 5.66732 6.14517 5.74552 5.92591 5.89202C5.70664 6.03853 5.53574 6.24677 5.43483 6.49041C5.33391 6.73404 5.30751 7.00213 5.35895 7.26077C5.4104 7.51941 5.53739 7.75699 5.72386 7.94346C5.91033 8.12993 6.14791 8.25692 6.40655 8.30836C6.66519 8.35981 6.93328 8.33341 7.17691 8.23249C7.42055 8.13157 7.62878 7.96068 7.77529 7.74141C7.9218 7.52215 8 7.26436 8 7.00065C8 6.64703 7.85952 6.30789 7.60948 6.05784C7.35943 5.80779 7.02029 5.66732 6.66667 5.66732ZM24 7.00065C24 7.26436 24.0782 7.52215 24.2247 7.74141C24.3712 7.96068 24.5795 8.13157 24.8231 8.23249C25.0667 8.33341 25.3348 8.35981 25.5935 8.30836C25.8521 8.25692 26.0897 8.12993 26.2761 7.94346C26.4626 7.75699 26.5896 7.51941 26.641 7.26077C26.6925 7.00213 26.6661 6.73404 26.5652 6.49041C26.4643 6.24677 26.2934 6.03853 26.0741 5.89202C25.8548 5.74552 25.597 5.66732 25.3333 5.66732C24.9797 5.66732 24.6406 5.80779 24.3905 6.05784C24.1405 6.30789 24 6.64703 24 7.00065ZM6.66667 13.6673C6.40296 13.6673 6.14517 13.7455 5.92591 13.892C5.70664 14.0385 5.53574 14.2468 5.43483 14.4904C5.33391 14.734 5.30751 15.0021 5.35895 15.2608C5.4104 15.5194 5.53739 15.757 5.72386 15.9435C5.91033 16.1299 6.14791 16.2569 6.40655 16.3084C6.66519 16.3598 6.93328 16.3334 7.17691 16.2325C7.42055 16.1316 7.62878 15.9607 7.77529 15.7414C7.9218 15.5221 8 15.2644 8 15.0007C8 14.647 7.85952 14.3079 7.60948 14.0578C7.35943 13.8078 7.02029 13.6673 6.66667 13.6673ZM24 15.0007C24 15.2644 24.0782 15.5221 24.2247 15.7414C24.3712 15.9607 24.5795 16.1316 24.8231 16.2325C25.0667 16.3334 25.3348 16.3598 25.5935 16.3084C25.8521 16.2569 26.0897 16.1299 26.2761 15.9435C26.4626 15.757 26.5896 15.5194 26.641 15.2608C26.6925 15.0021 26.6661 14.734 26.5652 14.4904C26.4643 14.2468 26.2934 14.0385 26.0741 13.892C25.8548 13.7455 25.597 13.6673 25.3333 13.6673C24.9797 13.6673 24.6406 13.8078 24.3905 14.0578C24.1405 14.3079 24 14.647 24 15.0007Z" fill="#374957"/>
</svg>
