<svg width="32" height="32" viewBox="0 0 32 32" fill="none" xmlns="http://www.w3.org/2000/svg">
<path d="M7.99992 29.3332C7.26659 29.3332 6.63859 29.0718 6.11592 28.5492C5.59325 28.0265 5.33237 27.3989 5.33325 26.6665V10.6665C5.33325 9.93317 5.59459 9.30517 6.11725 8.7825C6.63992 8.25984 7.26748 7.99895 7.99992 7.99984H10.6666C10.6666 6.53317 11.1888 5.27762 12.2333 4.23317C13.2777 3.18873 14.5333 2.6665 15.9999 2.6665C17.4666 2.6665 18.7221 3.18873 19.7666 4.23317C20.811 5.27762 21.3333 6.53317 21.3333 7.99984H23.9999C24.7333 7.99984 25.3613 8.26117 25.8839 8.78384C26.4066 9.3065 26.6675 9.93406 26.6666 10.6665V26.6665C26.6666 27.3998 26.4053 28.0278 25.8826 28.5505C25.3599 29.0732 24.7324 29.3341 23.9999 29.3332H7.99992ZM7.99992 26.6665H23.9999V10.6665H21.3333V13.3332C21.3333 13.7109 21.2053 14.0278 20.9493 14.2838C20.6933 14.5398 20.3768 14.6674 19.9999 14.6665C19.6221 14.6665 19.3053 14.5385 19.0493 14.2825C18.7933 14.0265 18.6657 13.7101 18.6666 13.3332V10.6665H13.3333V13.3332C13.3333 13.7109 13.2053 14.0278 12.9493 14.2838C12.6933 14.5398 12.3768 14.6674 11.9999 14.6665C11.6221 14.6665 11.3053 14.5385 11.0493 14.2825C10.7933 14.0265 10.6657 13.7101 10.6666 13.3332V10.6665H7.99992V26.6665ZM13.3333 7.99984H18.6666C18.6666 7.2665 18.4053 6.6385 17.8826 6.11584C17.3599 5.59317 16.7324 5.33228 15.9999 5.33317C15.2666 5.33317 14.6386 5.5945 14.1159 6.11717C13.5933 6.63984 13.3324 7.26739 13.3333 7.99984Z" fill="black"/>
</svg>
